<svg width="32" height="32" viewBox="0 0 32 32" fill="none" xmlns="http://www.w3.org/2000/svg">
<path d="M24.5 0H7.5C3.35786 0 0 3.35786 0 7.5V24.5C0 28.6421 3.35786 32 7.5 32H24.5C28.6421 32 32 28.6421 32 24.5V7.5C32 3.35786 28.6421 0 24.5 0Z" fill="#5865F2"/>
<mask id="mask0_111_313" style="mask-type:luminance" maskUnits="userSpaceOnUse" x="3" y="6" width="26" height="20">
<path d="M3.5 6.375H28.5V25.7412H3.5V6.375Z" fill="white"/>
</mask>
<g mask="url(#mask0_111_313)">
<path d="M24.6635 8.09965C23.0426 7.35574 21.3322 6.82519 19.5749 6.52128C19.5589 6.51836 19.5424 6.52054 19.5277 6.52749C19.5131 6.53444 19.501 6.54582 19.4931 6.56003C19.2734 6.95078 19.0299 7.46078 18.8595 7.86153C16.9379 7.57378 15.0262 7.57378 13.1441 7.86153C12.9736 7.45178 12.7214 6.95078 12.5006 6.56003C12.4925 6.54605 12.4803 6.53487 12.4657 6.52795C12.4511 6.52103 12.4347 6.51871 12.4187 6.52128C10.6613 6.8245 8.95069 7.35508 7.33011 8.09965C7.31631 8.10566 7.30464 8.11568 7.29661 8.12841C4.05561 12.9704 3.16786 17.6934 3.60336 22.3579C3.60601 22.3809 3.6177 22.402 3.63586 22.4164C5.77411 23.9868 7.84548 24.9402 9.87836 25.572C9.89418 25.5767 9.91104 25.5765 9.92672 25.5713C9.94239 25.5662 9.95613 25.5564 9.96611 25.5433C10.447 24.8865 10.8756 24.1942 11.2432 23.466C11.2483 23.4561 11.2512 23.4451 11.2517 23.434C11.2522 23.4228 11.2504 23.4116 11.2463 23.4012C11.2422 23.3908 11.2359 23.3814 11.2279 23.3736C11.2199 23.3658 11.2104 23.3597 11.1999 23.3559C10.5199 23.0979 9.87248 22.7835 9.24973 22.4264C9.23839 22.4197 9.22887 22.4104 9.222 22.3991C9.21513 22.3879 9.21113 22.3751 9.21036 22.362C9.20958 22.3489 9.21205 22.3357 9.21754 22.3238C9.22303 22.3118 9.23138 22.3014 9.24186 22.2934C9.37324 22.1952 9.50236 22.094 9.62911 21.9899C9.64022 21.9808 9.65366 21.9749 9.66792 21.9729C9.68218 21.971 9.69671 21.9731 9.70986 21.9789C13.8014 23.8469 18.2307 23.8469 22.2739 21.9789C22.2871 21.9727 22.3018 21.9703 22.3162 21.9721C22.3307 21.9739 22.3444 21.9797 22.3557 21.9889C22.4826 22.0936 22.6121 22.1951 22.744 22.2934C22.7545 22.3013 22.7629 22.3117 22.7685 22.3236C22.7741 22.3355 22.7766 22.3486 22.776 22.3617C22.7753 22.3749 22.7714 22.3876 22.7646 22.3989C22.7578 22.4102 22.7484 22.4196 22.7371 22.4264C22.114 22.7902 21.4613 23.1008 20.786 23.3549C20.7755 23.3589 20.766 23.3651 20.7581 23.3731C20.7502 23.381 20.744 23.3906 20.7401 23.401C20.7361 23.4115 20.7343 23.4227 20.7349 23.4339C20.7355 23.4451 20.7385 23.4561 20.7436 23.466C21.1176 24.1884 21.5441 24.8823 22.0196 25.5423C22.0293 25.5557 22.043 25.5658 22.0587 25.5712C22.0745 25.5765 22.0915 25.5768 22.1074 25.572C24.1501 24.9402 26.2215 23.9868 28.3599 22.4164C28.369 22.4096 28.3766 22.401 28.3822 22.3911C28.3878 22.3812 28.3913 22.3702 28.3924 22.3589C28.9136 16.9663 27.5192 12.2819 24.696 8.12941C24.6891 8.11587 24.6776 8.1053 24.6635 8.09965ZM11.8542 19.5178C10.6224 19.5178 9.60736 18.3869 9.60736 16.998C9.60736 15.6092 10.6027 14.4783 11.8542 14.4783C13.1155 14.4783 14.1206 15.6192 14.1009 16.998C14.1009 18.3869 13.1056 19.5178 11.8542 19.5178ZM20.1612 19.5178C18.9294 19.5178 17.9145 18.3869 17.9145 16.998C17.9145 15.6092 18.9097 14.4783 20.1612 14.4783C21.4225 14.4783 22.4276 15.6192 22.408 16.998C22.408 18.3869 21.4225 19.5178 20.1612 19.5178Z" fill="white"/>
</g>
</svg>
