<svg width="32" height="32" viewBox="0 0 32 32" fill="none" xmlns="http://www.w3.org/2000/svg">
<path d="M16 2.66663C14.249 2.66663 12.5152 3.0115 10.8975 3.68157C9.27987 4.35163 7.81001 5.33375 6.5719 6.57187C4.07141 9.07235 2.66666 12.4637 2.66666 16C2.66666 21.8933 6.49332 26.8933 11.7867 28.6666C12.4533 28.7733 12.6667 28.36 12.6667 28V25.7466C8.97332 26.5466 8.18666 23.96 8.18666 23.96C7.57332 22.4133 6.70666 22 6.70666 22C5.49332 21.1733 6.79999 21.2 6.79999 21.2C8.13332 21.2933 8.83999 22.5733 8.83999 22.5733C9.99999 24.6 11.96 24 12.72 23.68C12.84 22.8133 13.1867 22.2266 13.56 21.8933C10.6 21.56 7.49332 20.4133 7.49332 15.3333C7.49332 13.8533 7.99999 12.6666 8.86666 11.72C8.73332 11.3866 8.26666 9.99996 8.99999 8.19996C8.99999 8.19996 10.12 7.83996 12.6667 9.55996C13.72 9.26663 14.8667 9.11996 16 9.11996C17.1333 9.11996 18.28 9.26663 19.3333 9.55996C21.88 7.83996 23 8.19996 23 8.19996C23.7333 9.99996 23.2667 11.3866 23.1333 11.72C24 12.6666 24.5067 13.8533 24.5067 15.3333C24.5067 20.4266 21.3867 21.5466 18.4133 21.88C18.8933 22.2933 19.3333 23.1066 19.3333 24.3466V28C19.3333 28.36 19.5467 28.7866 20.2267 28.6666C25.52 26.88 29.3333 21.8933 29.3333 16C29.3333 14.249 28.9884 12.5152 28.3184 10.8975C27.6483 9.27984 26.6662 7.80998 25.4281 6.57187C24.19 5.33375 22.7201 4.35163 21.1024 3.68157C19.4848 3.0115 17.7509 2.66663 16 2.66663Z" fill="white"/>
</svg>
