<svg width="473" height="283" viewBox="0 0 473 283" fill="none" xmlns="http://www.w3.org/2000/svg">
<g clip-path="url(#clip0_111_85)">
<path d="M362.14 279.8C356.084 274.679 352.406 266.59 353.371 258.714C354.335 250.839 360.31 243.6 368.06 241.927C375.81 240.255 384.644 244.884 386.998 252.461C388.294 237.854 389.787 222.635 397.547 210.196C404.573 198.933 416.743 190.874 429.933 189.432C443.122 187.99 457.009 193.436 465.235 203.854C473.461 214.272 475.475 229.418 469.714 241.379C465.47 250.19 457.651 256.748 449.458 262.082C422.986 279.176 391.235 286.127 360.049 281.657L362.14 279.8Z" fill="#F2F2F2"/>
<path d="M452.192 193.737C441.309 202.608 431.325 212.53 422.384 223.359C408.392 240.247 397.07 259.183 388.811 279.505C388.207 280.988 390.612 281.633 391.21 280.167C404.723 247.139 426.294 218.028 453.951 195.498C455.193 194.486 453.424 192.734 452.192 193.737Z" fill="white"/>
<path d="M152.266 278.408C160.584 271.375 165.636 260.264 164.311 249.448C162.986 238.631 154.78 228.688 144.135 226.391C133.491 224.094 121.357 230.452 118.124 240.858C116.344 220.796 114.294 199.893 103.635 182.808C93.9844 167.338 77.2688 156.268 59.1528 154.288C41.0369 152.308 21.9631 159.787 10.6648 174.097C-0.633437 188.406 -3.39977 209.209 4.51324 225.637C10.3425 237.74 21.082 246.746 32.3343 254.074C68.2331 277.45 112.766 287.2 155.139 280.959" fill="#F2F2F2"/>
<path d="M28.5794 160.202C43.5273 172.386 57.2404 186.013 69.5204 200.887C81.8024 215.744 92.6153 231.759 101.807 248.707C106.945 258.213 111.561 267.994 115.633 278.004C116.464 280.04 113.16 280.926 112.338 278.913C105.125 261.265 96.2007 244.367 85.6933 228.461C75.237 212.613 63.2692 197.818 49.958 184.282C42.4292 176.631 34.4856 169.399 26.1633 162.62C24.4574 161.23 26.8876 158.823 28.5794 160.202Z" fill="white"/>
<path d="M339.527 282.381H141.084V78.6204C141.084 35.2689 176.327 0 219.646 0H260.966C304.285 0 339.527 35.2689 339.527 78.6204V282.381Z" fill="#F2F2F2"/>
<path d="M298.208 282.381H141.084V78.6204C141.041 62.0091 146.297 45.8176 156.088 32.4034C156.449 31.9111 156.809 31.4252 157.18 30.9446C161.915 24.729 167.551 19.255 173.9 14.7034C174.259 14.4422 174.619 14.1856 174.984 13.9289C180.297 10.2495 186.044 7.24165 192.095 4.97383C192.454 4.83754 192.82 4.70098 193.186 4.57C198.658 2.61569 204.331 1.27699 210.099 0.578634C210.457 0.529748 210.824 0.491494 211.191 0.453239C216.812 -0.148231 222.481 -0.148231 228.102 0.453239C228.468 0.491494 228.835 0.529743 229.197 0.579157C234.964 1.27756 240.635 2.6161 246.106 4.57003C246.472 4.70101 246.838 4.83755 247.198 4.97411C253.174 7.21333 258.853 10.1763 264.11 13.7969C264.475 14.048 264.841 14.3046 265.201 14.5612C268.76 17.1036 272.103 19.936 275.195 23.0294C277.676 25.5106 279.987 28.1555 282.113 30.9463C282.483 31.4252 282.843 31.9112 283.204 32.4026C292.994 45.817 298.251 62.0088 298.208 78.6204V282.381Z" fill="#CCCCCC"/>
<path d="M285.431 191.246C290.235 191.246 294.13 187.349 294.13 182.541C294.13 177.733 290.235 173.835 285.431 173.835C280.627 173.835 276.732 177.733 276.732 182.541C276.732 187.349 280.627 191.246 285.431 191.246Z" fill="#FFD60A"/>
<path d="M323.271 276.278H316.605L313.434 250.549L323.272 250.549L323.271 276.278Z" fill="#FFB8B8"/>
<path d="M311.844 274.371H324.698V282.471H303.75C303.75 281.408 303.96 280.354 304.366 279.372C304.773 278.389 305.369 277.496 306.121 276.744C306.872 275.992 307.765 275.395 308.747 274.988C309.728 274.581 310.781 274.371 311.844 274.371Z" fill="#2F2E41"/>
<path d="M356.435 276.278H349.769L346.598 250.549L356.436 250.549L356.435 276.278Z" fill="#FFB8B8"/>
<path d="M345.008 274.371H357.863V282.471H336.915C336.915 281.408 337.124 280.354 337.531 279.372C337.937 278.389 338.534 277.496 339.285 276.744C340.037 275.992 340.929 275.395 341.911 274.988C342.893 274.581 343.945 274.371 345.008 274.371Z" fill="#2F2E41"/>
<path d="M289.834 184.265C289.354 183.558 289.035 182.755 288.9 181.911C288.764 181.067 288.815 180.204 289.049 179.382C289.283 178.561 289.694 177.8 290.253 177.154C290.812 176.509 291.506 175.994 292.286 175.645L314.944 113.148L326.093 119.237L300.223 178.962C300.72 180.311 300.706 181.797 300.183 183.137C299.659 184.477 298.663 185.578 297.382 186.231C296.101 186.885 294.626 187.046 293.234 186.684C291.843 186.321 290.633 185.461 289.834 184.265Z" fill="#FFB8B8"/>
<path d="M353.03 196.009C352.289 195.584 351.651 195.001 351.159 194.303C350.668 193.604 350.335 192.806 350.185 191.965C350.035 191.124 350.072 190.26 350.291 189.434C350.511 188.608 350.909 187.841 351.457 187.186L344.438 121.074L357.126 121.654L360.043 186.684C361.082 187.678 361.72 189.019 361.837 190.453C361.953 191.887 361.54 193.314 360.676 194.464C359.811 195.613 358.555 196.405 357.146 196.69C355.737 196.975 354.273 196.732 353.03 196.009Z" fill="#FFB8B8"/>
<path d="M332.789 101.572C340.163 101.572 346.142 95.5889 346.142 88.2086C346.142 80.8282 340.163 74.8453 332.789 74.8453C325.414 74.8453 319.435 80.8282 319.435 88.2086C319.435 95.5889 325.414 101.572 332.789 101.572Z" fill="#FFB8B8"/>
<path d="M352.945 180.973H312.687L312.736 180.66C312.808 180.191 319.91 133.629 314.672 118.397C314.146 116.9 314.193 115.261 314.802 113.796C315.411 112.331 316.54 111.144 317.972 110.462C325.459 106.933 339.832 102.588 351.963 113.133C353.748 114.71 355.142 116.681 356.034 118.891C356.927 121.1 357.294 123.487 357.106 125.862L352.945 180.973Z" fill="#FFD60A"/>
<path d="M320.419 140.51L302.295 136.831L310.79 116.683C311.299 114.732 312.56 113.062 314.297 112.04C316.034 111.018 318.105 110.727 320.056 111.231C322.008 111.735 323.679 112.993 324.705 114.729C325.73 116.465 326.026 118.537 325.527 120.491L320.419 140.51Z" fill="#FFD60A"/>
<path d="M343.632 147.343L342.542 122.347C341.716 117.648 344.404 113.206 348.538 112.48C352.673 111.757 356.71 115.015 357.54 119.749L361.636 143.105L343.632 147.343Z" fill="#FFD60A"/>
<path d="M351.605 177.981C358.083 202.669 358.79 234.059 357.042 268.299L348.343 267.211L332.577 201.92L323.878 268.299L314.092 267.755C311.168 231.829 308.321 200.987 313.004 180.701L351.605 177.981Z" fill="#2F2E41"/>
<path d="M341.587 98.5361C339.096 101.192 334.47 99.7661 334.145 96.1382C334.12 95.8566 334.121 95.5731 334.151 95.2918C334.318 93.6848 335.246 92.2258 335.024 90.5291C334.973 90.1068 334.816 89.7044 334.567 89.3599C332.582 86.6997 327.922 90.5498 326.048 88.1415C324.9 86.6649 326.25 84.3399 325.368 82.6895C324.205 80.5112 320.759 81.5858 318.598 80.3928C316.193 79.0655 316.337 75.3735 317.92 73.1278C319.85 70.3891 323.235 68.9278 326.577 68.7171C329.919 68.5065 333.239 69.4107 336.359 70.6277C339.904 72.0104 343.42 73.9213 345.602 77.0411C348.255 80.8351 348.51 85.9358 347.183 90.3721C346.376 93.0708 343.621 96.3676 341.587 98.5361Z" fill="#2F2E41"/>
<path d="M456.68 282.731H55.2853C55.1139 282.73 54.9498 282.662 54.8288 282.54C54.7078 282.419 54.6398 282.254 54.6398 282.083C54.6398 281.911 54.7078 281.747 54.8288 281.625C54.9498 281.504 55.1139 281.435 55.2853 281.435H456.68C456.851 281.435 457.015 281.504 457.136 281.625C457.257 281.747 457.325 281.911 457.325 282.083C457.325 282.254 457.257 282.419 457.136 282.54C457.015 282.662 456.851 282.73 456.68 282.731Z" fill="#3F3D56"/>
<path d="M254.985 223.347H184.307C183.376 223.352 182.481 222.988 181.819 222.333C181.156 221.679 180.78 220.788 180.773 219.857V61.9797C180.78 61.0482 181.156 60.1575 181.819 59.5032C182.481 58.8488 183.376 58.4842 184.307 58.4892H254.985C255.916 58.4842 256.811 58.8488 257.473 59.5032C258.136 60.1575 258.512 61.0482 258.519 61.9797V219.857C258.512 220.788 258.136 221.679 257.473 222.333C256.811 222.988 255.916 223.352 254.985 223.347Z" fill="white"/>
<path d="M258.519 109.573H180.773V110.661H258.519V109.573Z" fill="#CCCCCC"/>
<path d="M258.791 171.659H181.045V172.747H258.791V171.659Z" fill="#CCCCCC"/>
<path d="M206.326 58.4892H205.238V223.891H206.326V58.4892Z" fill="#CCCCCC"/>
<path d="M233.51 58.4892H232.422V223.891H233.51V58.4892Z" fill="#CCCCCC"/>
</g>
<defs>
<clipPath id="clip0_111_85">
<rect width="473" height="283" fill="white"/>
</clipPath>
</defs>
</svg>
