<svg width="656" height="339" viewBox="0 0 656 339" fill="none" xmlns="http://www.w3.org/2000/svg">
<g clip-path="url(#clip0_111_378)">
<path d="M328 303.005C509.149 303.005 656 298.897 656 293.829C656 288.761 509.149 284.653 328 284.653C146.851 284.653 0 288.761 0 293.829C0 298.897 146.851 303.005 328 303.005Z" fill="#E6E6E6"/>
<path d="M502.801 194.4C502.387 194.405 501.973 194.411 501.553 194.411C501.133 194.411 500.719 194.405 500.305 194.4C478.348 193.9 462.434 180.18 466.485 165.784L476.363 130.666L478.859 121.78L523.112 122.535L525.801 131.228L536.388 165.444C540.87 179.919 524.956 193.9 502.801 194.4Z" fill="#3F3D56"/>
<path opacity="0.2" d="M525.801 131.228C518.256 135.541 509.696 137.764 501.006 137.665C492.315 137.566 483.808 135.15 476.363 130.666L478.859 121.78L523.112 122.535L525.801 131.228Z" fill="black"/>
<path d="M523.933 166.949C525.845 159.824 532.128 149.545 549.748 137.151C580.478 115.533 562.146 99.3241 561.352 98.6449C559.685 97.2204 559.931 95.6208 561.924 95.0743C563.081 94.8429 564.275 94.8616 565.425 95.1293C566.574 95.3969 567.653 95.9072 568.59 96.6261C569.585 97.4492 592.54 117.055 557.864 141.445C526.657 163.399 533.292 177.729 533.368 177.867C534.204 179.4 532.863 180.626 530.37 180.609C527.877 180.593 525.176 179.338 524.337 177.807C524.161 177.483 522.153 173.583 523.933 166.949Z" fill="#3F3D56"/>
<path d="M481.128 199.518C480.458 199.518 479.794 199.386 479.174 199.129C478.555 198.872 477.992 198.496 477.517 198.022C477.043 197.548 476.667 196.985 476.411 196.365C476.154 195.746 476.022 195.082 476.022 194.411V172.281C476.022 170.927 476.56 169.628 477.518 168.67C478.475 167.712 479.774 167.174 481.128 167.174C482.482 167.174 483.781 167.712 484.739 168.67C485.696 169.628 486.234 170.927 486.234 172.281V194.411C486.234 195.082 486.102 195.746 485.846 196.365C485.589 196.985 485.213 197.548 484.739 198.022C484.265 198.496 483.702 198.872 483.082 199.129C482.463 199.386 481.799 199.518 481.128 199.518Z" fill="#3F3D56"/>
<path d="M485.605 146.981C485.325 147.59 484.927 148.138 484.435 148.594C483.943 149.049 483.366 149.404 482.737 149.636C482.109 149.869 481.44 149.975 480.77 149.949C480.1 149.924 479.441 149.766 478.832 149.486L458.731 140.236C457.502 139.669 456.549 138.637 456.08 137.368C455.611 136.098 455.666 134.694 456.232 133.464C456.797 132.235 457.828 131.28 459.097 130.81C460.366 130.34 461.77 130.393 463 130.957L483.101 140.207C483.71 140.487 484.258 140.885 484.713 141.377C485.169 141.869 485.523 142.446 485.756 143.075C485.988 143.704 486.095 144.373 486.069 145.043C486.043 145.713 485.885 146.372 485.605 146.981Z" fill="#3F3D56"/>
<path d="M517.5 146.981C517.78 147.59 518.178 148.138 518.67 148.594C519.162 149.049 519.739 149.404 520.368 149.636C520.997 149.869 521.665 149.975 522.335 149.949C523.006 149.924 523.664 149.766 524.273 149.486L544.374 140.236C545.604 139.67 546.559 138.638 547.029 137.368C547.499 136.097 547.445 134.693 546.879 133.462C546.313 132.232 545.281 131.276 544.011 130.807C542.741 130.337 541.336 130.391 540.106 130.957L520.005 140.207C519.395 140.487 518.847 140.885 518.392 141.377C517.936 141.869 517.582 142.446 517.35 143.075C517.117 143.704 517.011 144.373 517.037 145.043C517.062 145.713 517.22 146.371 517.5 146.981Z" fill="#3F3D56"/>
<path d="M521.977 199.518C522.648 199.518 523.312 199.386 523.931 199.129C524.551 198.872 525.114 198.496 525.588 198.022C526.062 197.548 526.438 196.985 526.695 196.365C526.951 195.746 527.083 195.082 527.083 194.411V172.281C527.083 170.927 526.545 169.628 525.588 168.67C524.63 167.712 523.331 167.174 521.977 167.174C520.623 167.174 519.324 167.712 518.367 168.67C517.409 169.628 516.871 170.927 516.871 172.281V194.411C516.871 195.082 517.003 195.746 517.26 196.365C517.516 196.985 517.892 197.548 518.367 198.022C518.841 198.496 519.404 198.872 520.023 199.129C520.643 199.386 521.307 199.518 521.977 199.518Z" fill="#3F3D56"/>
<path d="M543.316 56.2501C543.758 55.6943 544.076 55.0512 544.251 54.3632C544.425 53.6753 544.452 52.9581 544.33 52.259L541.551 35.9082L538.772 19.5574C538.622 18.6746 538.242 17.8468 537.671 17.1573C537.099 16.4677 536.357 15.9408 535.517 15.6293C534.678 15.3179 533.771 15.2329 532.888 15.383C532.006 15.5331 531.178 15.9129 530.488 16.4843L517.72 27.0667L510.027 33.4422C504.897 32.5298 499.653 32.4508 494.498 33.208L487.088 27.0667L474.319 16.4843C473.629 15.9129 472.802 15.5331 471.919 15.383C471.036 15.2329 470.13 15.3179 469.29 15.6294C468.451 15.9408 467.708 16.4678 467.137 17.1573C466.565 17.8468 466.186 18.6746 466.036 19.5574L463.257 35.9082L460.478 52.259C460.329 53.1184 460.406 54.0015 460.7 54.8224C455.938 62.1245 453.218 70.5696 452.825 79.279C452.432 87.9885 454.379 96.6442 458.464 104.346C462.55 112.047 468.624 118.514 476.054 123.072C483.485 127.63 492.001 130.113 500.717 130.264C509.433 130.415 518.03 128.227 525.614 123.928C533.197 119.63 539.491 113.377 543.84 105.821C548.189 98.2653 550.434 89.682 550.342 80.9642C550.25 72.2463 547.824 63.7124 543.316 56.2501Z" fill="#3F3D56"/>
<path d="M473.039 23.1846C472.737 23.1851 472.436 23.2396 472.153 23.3456C471.736 23.4975 471.366 23.7576 471.083 24.0994C470.8 24.4412 470.613 24.8523 470.541 25.2903L467.171 45.1188C467.097 45.5559 467.139 46.0048 467.293 46.4205C467.447 46.8362 467.708 47.2039 468.049 47.4868C468.391 47.7697 468.801 47.9577 469.238 48.032C469.675 48.1062 470.123 48.0642 470.539 47.91L489.393 40.9146C489.809 40.7604 490.177 40.4995 490.459 40.1582C490.742 39.8169 490.93 39.4071 491.004 38.9701C491.079 38.5331 491.037 38.0842 490.883 37.6686C490.728 37.2529 490.468 36.8852 490.126 36.6024L474.642 23.769C474.193 23.3925 473.626 23.1857 473.039 23.1846Z" fill="#E6E6E6"/>
<path d="M531.768 23.1846C531.182 23.1857 530.615 23.3925 530.165 23.769L514.681 36.6024C514.34 36.8852 514.079 37.2529 513.925 37.6686C513.771 38.0842 513.729 38.5331 513.803 38.9701C513.877 39.4071 514.065 39.8169 514.348 40.1582C514.631 40.4995 514.999 40.7604 515.414 40.9146L534.268 47.91C534.684 48.0642 535.133 48.1062 535.57 48.032C536.007 47.9577 536.417 47.7697 536.758 47.4868C537.099 47.2039 537.36 46.8362 537.515 46.4205C537.669 46.0048 537.711 45.5559 537.637 45.1188L534.267 25.2903C534.195 24.8523 534.008 24.4412 533.724 24.0994C533.441 23.7576 533.072 23.4975 532.655 23.3456C532.371 23.2396 532.071 23.1851 531.768 23.1846Z" fill="#E6E6E6"/>
<path d="M501.553 95.1108C505.313 95.1108 508.361 92.0622 508.361 88.3016C508.361 84.5411 505.313 81.4925 501.553 81.4925C497.793 81.4925 494.745 84.5411 494.745 88.3016C494.745 92.0622 497.793 95.1108 501.553 95.1108Z" fill="#E6E6E6"/>
<path d="M501.553 86.5993C504.059 86.5993 506.092 85.8372 506.092 84.897C506.092 83.9569 504.059 83.1948 501.553 83.1948C499.046 83.1948 497.014 83.9569 497.014 84.897C497.014 85.8372 499.046 86.5993 501.553 86.5993Z" fill="#3F3D56"/>
<path d="M498.149 92.2736H504.39V99.9339C504.39 100.344 504.309 100.75 504.152 101.128C503.995 101.507 503.765 101.851 503.476 102.141C503.186 102.431 502.842 102.66 502.463 102.817C502.085 102.974 501.679 103.055 501.269 103.055C500.441 103.055 499.648 102.726 499.063 102.141C498.477 101.555 498.149 100.762 498.149 99.9339L498.149 92.2736Z" fill="#FF6584"/>
<path d="M501.932 15.0391C501.604 15.7179 501.287 16.404 500.988 17.1041C497.467 25.3168 496.279 34.3419 497.556 43.1861C498.195 42.2592 498.866 41.2935 499.549 40.3171C498.087 31.829 498.909 23.1045 501.932 15.0391Z" fill="#3F3D56"/>
<path d="M507.038 21.2808C506.71 21.9596 506.393 22.6457 506.094 23.3458C502.573 31.5585 501.385 40.5836 502.662 49.4278C503.301 48.5009 503.972 47.5352 504.655 46.5589C503.193 38.0707 504.015 29.3462 507.038 21.2808Z" fill="#3F3D56"/>
<path d="M522.78 143.819L522.061 134.669L521.341 125.52C521.303 125.026 521.134 124.551 520.854 124.143C520.573 123.734 520.19 123.407 519.743 123.194C519.296 122.98 518.8 122.888 518.306 122.927C517.812 122.966 517.337 123.134 516.929 123.415L509.366 128.613L503.844 132.408C503.491 131.995 503.053 131.663 502.559 131.435C502.066 131.208 501.529 131.09 500.985 131.09C500.442 131.09 499.905 131.208 499.411 131.435C498.918 131.663 498.479 131.995 498.126 132.408L492.604 128.613L485.041 123.415C484.633 123.134 484.158 122.966 483.664 122.927C483.17 122.888 482.675 122.98 482.227 123.194C481.78 123.407 481.397 123.734 481.117 124.143C480.836 124.551 480.668 125.026 480.629 125.52L479.91 134.669L479.19 143.818C479.151 144.312 479.243 144.808 479.457 145.255C479.67 145.702 479.997 146.086 480.406 146.366C480.814 146.647 481.289 146.815 481.783 146.854C482.277 146.893 482.772 146.801 483.219 146.588L491.501 142.636L498.306 139.389C498.656 139.744 499.073 140.026 499.533 140.218C499.993 140.41 500.487 140.509 500.985 140.509C501.484 140.509 501.977 140.41 502.437 140.218C502.897 140.026 503.314 139.744 503.664 139.389L510.469 142.636L518.751 146.588C519.198 146.801 519.694 146.893 520.187 146.854C520.681 146.815 521.156 146.647 521.565 146.366C521.973 146.086 522.3 145.703 522.514 145.255C522.727 144.808 522.819 144.313 522.78 143.819Z" fill="#FFD60A"/>
<path d="M492.475 82.6273C493.415 82.6273 494.177 81.8652 494.177 80.9251C494.177 79.9849 493.415 79.2228 492.475 79.2228C491.535 79.2228 490.773 79.9849 490.773 80.9251C490.773 81.8652 491.535 82.6273 492.475 82.6273Z" fill="#E6E6E6"/>
<path d="M510.63 82.6273C511.57 82.6273 512.332 81.8652 512.332 80.9251C512.332 79.9849 511.57 79.2228 510.63 79.2228C509.69 79.2228 508.928 79.9849 508.928 80.9251C508.928 81.8652 509.69 82.6273 510.63 82.6273Z" fill="#E6E6E6"/>
<path d="M172.232 179.36C172.646 179.366 173.06 179.372 173.48 179.372C173.9 179.372 174.314 179.366 174.728 179.36C196.684 178.861 212.598 165.141 208.548 150.745L198.67 115.627L196.174 106.741L151.921 107.496L149.231 116.189L138.645 150.405C134.163 164.88 150.077 178.861 172.232 179.36Z" fill="#3F3D56"/>
<path opacity="0.2" d="M149.231 116.189C156.777 120.502 165.336 122.724 174.027 122.626C182.718 122.527 191.225 120.111 198.67 115.627L196.174 106.741L151.921 107.496L149.231 116.189Z" fill="black"/>
<path d="M145.724 147.748C140.948 142.126 130.871 135.524 109.643 131.863C72.6202 125.475 82.2539 102.98 82.6813 102.026C83.578 100.026 82.6712 98.6852 80.6365 99.0439C79.4913 99.3301 78.4206 99.8578 77.496 100.592C76.5714 101.326 75.8144 102.249 75.2756 103.299C74.7285 104.469 62.3692 132.013 104.145 139.217C141.744 145.704 141.878 161.496 141.868 161.653C141.768 163.396 143.505 163.931 145.751 162.849C147.997 161.767 149.901 159.477 150.005 157.734C150.025 157.366 150.172 152.982 145.724 147.748Z" fill="#3F3D56"/>
<path d="M193.904 184.479C194.575 184.479 195.239 184.347 195.859 184.09C196.478 183.833 197.041 183.457 197.515 182.983C197.989 182.509 198.365 181.946 198.622 181.326C198.879 180.707 199.011 180.042 199.011 179.372V157.242C199.009 155.889 198.47 154.591 197.513 153.635C196.555 152.679 195.258 152.141 193.904 152.141C192.551 152.141 191.253 152.679 190.296 153.635C189.339 154.591 188.8 155.889 188.798 157.242V179.372C188.798 180.042 188.93 180.707 189.187 181.326C189.444 181.946 189.82 182.509 190.294 182.983C190.768 183.457 191.331 183.833 191.95 184.09C192.57 184.347 193.234 184.479 193.904 184.479Z" fill="#3F3D56"/>
<path d="M189.427 131.942C189.708 132.551 190.105 133.099 190.597 133.555C191.089 134.01 191.666 134.364 192.295 134.597C192.924 134.83 193.593 134.936 194.263 134.91C194.933 134.884 195.591 134.727 196.2 134.447L216.301 125.197C216.911 124.917 217.46 124.52 217.916 124.028C218.373 123.536 218.727 122.958 218.96 122.329C219.193 121.7 219.3 121.031 219.275 120.36C219.249 119.689 219.091 119.03 218.811 118.421C218.53 117.811 218.133 117.263 217.64 116.807C217.148 116.351 216.57 115.997 215.941 115.764C215.311 115.532 214.642 115.426 213.972 115.452C213.301 115.479 212.642 115.637 212.033 115.918L191.932 125.168C191.323 125.448 190.775 125.846 190.319 126.338C189.864 126.83 189.509 127.407 189.277 128.036C189.044 128.665 188.938 129.334 188.964 130.004C188.99 130.674 189.147 131.332 189.427 131.942Z" fill="#3F3D56"/>
<path d="M157.532 131.942C157.252 132.551 156.855 133.099 156.363 133.555C155.871 134.01 155.294 134.364 154.665 134.597C154.036 134.83 153.367 134.936 152.697 134.91C152.027 134.884 151.369 134.727 150.759 134.447L130.658 125.197C130.048 124.917 129.5 124.52 129.043 124.028C128.587 123.536 128.232 122.958 127.999 122.329C127.766 121.7 127.66 121.031 127.685 120.36C127.711 119.689 127.868 119.03 128.149 118.421C128.429 117.811 128.827 117.263 129.32 116.807C129.812 116.351 130.39 115.997 131.019 115.764C131.649 115.532 132.318 115.426 132.988 115.452C133.659 115.479 134.317 115.637 134.927 115.918L155.028 125.168C155.637 125.448 156.185 125.846 156.641 126.338C157.096 126.83 157.45 127.407 157.683 128.036C157.915 128.665 158.022 129.334 157.996 130.004C157.97 130.674 157.813 131.332 157.532 131.942Z" fill="#3F3D56"/>
<path d="M153.055 184.479C152.385 184.479 151.721 184.347 151.101 184.09C150.482 183.833 149.919 183.457 149.445 182.983C148.971 182.509 148.595 181.946 148.338 181.326C148.081 180.707 147.949 180.042 147.949 179.372V157.242C147.951 155.889 148.49 154.591 149.447 153.635C150.404 152.679 151.702 152.141 153.055 152.141C154.409 152.141 155.706 152.679 156.664 153.635C157.621 154.591 158.16 155.889 158.162 157.242V179.372C158.162 180.042 158.03 180.707 157.773 181.326C157.516 181.946 157.14 182.509 156.666 182.983C156.192 183.457 155.629 183.833 155.01 184.09C154.39 184.347 153.726 184.479 153.055 184.479Z" fill="#3F3D56"/>
<path d="M214.332 39.7834C214.627 38.9624 214.703 38.0793 214.555 37.2199L211.776 20.8691L208.997 4.5183C208.847 3.63547 208.467 2.80769 207.896 2.11818C207.324 1.42866 206.582 0.901701 205.742 0.59025C204.903 0.278799 203.996 0.193829 203.113 0.343898C202.231 0.493966 201.403 0.873784 200.714 1.44516L187.945 12.0276L180.535 18.1689C175.38 17.4116 170.136 17.4907 165.005 18.4031L157.313 12.0276L144.544 1.44514C143.855 0.87376 143.027 0.493945 142.144 0.343875C141.262 0.193805 140.355 0.278765 139.516 0.590216C138.676 0.901667 137.933 1.42863 137.362 2.11815C136.791 2.80767 136.411 3.63545 136.261 4.51828L133.482 20.8691L130.703 37.2199C130.58 37.919 130.607 38.6362 130.782 39.3241C130.957 40.0121 131.275 40.6552 131.716 41.211C127.203 48.675 124.772 57.2124 124.677 65.9347C124.582 74.6569 126.826 83.2453 131.175 90.8061C135.524 98.3668 141.82 104.624 149.407 108.925C156.995 113.227 165.596 115.416 174.316 115.266C183.036 115.115 191.557 112.63 198.991 108.068C206.425 103.507 212.501 97.0366 216.586 89.3301C220.672 81.6235 222.618 72.9628 222.221 64.249C221.825 55.5353 219.101 47.087 214.332 39.7834Z" fill="#3F3D56"/>
<path d="M200.391 8.7299L184.907 21.5627C184.565 21.8456 184.304 22.2139 184.15 22.6295C183.996 23.0451 183.954 23.494 184.028 23.931C184.103 24.368 184.291 24.7778 184.573 25.1191C184.856 25.4605 185.224 25.7213 185.639 25.8755L204.494 32.8709C204.909 33.0251 205.358 33.0672 205.795 32.9929C206.232 32.9186 206.642 32.7306 206.983 32.4477C207.325 32.1648 207.586 31.7971 207.74 31.3814C207.894 30.9657 207.936 30.5168 207.862 30.0797L204.492 10.2513C204.42 9.81318 204.233 9.40214 203.95 9.06036C203.666 8.71858 203.297 8.4584 202.88 8.30655C202.596 8.20051 202.296 8.146 201.993 8.14557C201.407 8.14666 200.84 8.35345 200.391 8.7299Z" fill="#E6E6E6"/>
<path d="M142.378 8.30655C141.961 8.45839 141.592 8.71857 141.308 9.06035C141.025 9.40213 140.838 9.81318 140.766 10.2513L137.396 30.0797C137.322 30.5168 137.364 30.9657 137.518 31.3814C137.672 31.7971 137.933 32.1648 138.274 32.4477C138.616 32.7306 139.026 32.9186 139.463 32.9929C139.9 33.0672 140.349 33.0251 140.764 32.8709L159.618 25.8755C160.034 25.7213 160.402 25.4605 160.684 25.1191C160.967 24.7778 161.155 24.368 161.23 23.931C161.304 23.494 161.262 23.0451 161.108 22.6295C160.954 22.2139 160.693 21.8462 160.351 21.5633L144.867 8.7299C144.418 8.35345 143.851 8.14666 143.265 8.14557C142.962 8.146 142.661 8.20052 142.378 8.30655Z" fill="#E6E6E6"/>
<path d="M173.48 80.0717C177.24 80.0717 180.288 77.0231 180.288 73.2625C180.288 69.5019 177.24 66.4534 173.48 66.4534C169.72 66.4534 166.672 69.5019 166.672 73.2625C166.672 77.0231 169.72 80.0717 173.48 80.0717Z" fill="#E6E6E6"/>
<path d="M173.48 71.5602C175.987 71.5602 178.019 70.7981 178.019 69.8579C178.019 68.9178 175.987 68.1556 173.48 68.1556C170.973 68.1556 168.941 68.9178 168.941 69.8579C168.941 70.7981 170.973 71.5602 173.48 71.5602Z" fill="#3F3D56"/>
<path d="M173.764 88.0157C173.354 88.0157 172.948 87.935 172.57 87.7781C172.191 87.6213 171.847 87.3914 171.557 87.1016C171.267 86.8118 171.038 86.4677 170.881 86.0891C170.724 85.7105 170.643 85.3046 170.643 84.8948V77.2345H176.884V84.8948C176.884 85.3046 176.803 85.7105 176.647 86.0891C176.49 86.4677 176.26 86.8118 175.97 87.1016C175.68 87.3914 175.336 87.6213 174.958 87.7781C174.579 87.935 174.173 88.0157 173.764 88.0157Z" fill="#FF6584"/>
<path d="M173.101 0C173.428 0.678739 173.746 1.36482 174.045 2.06493C177.566 10.2777 178.753 19.3028 177.476 28.147C176.838 27.2201 176.166 26.2544 175.484 25.278C176.946 16.7898 176.124 8.06534 173.101 0Z" fill="#3F3D56"/>
<path d="M167.995 6.2417C168.322 6.92045 168.64 7.60652 168.939 8.30663C172.46 16.5194 173.647 25.5445 172.37 34.3887C171.732 33.4618 171.06 32.4961 170.377 31.5197C171.84 23.0315 171.018 14.307 167.995 6.2417Z" fill="#3F3D56"/>
<path d="M152.252 29.4792L152.972 20.33L153.691 11.1808C153.73 10.6868 153.898 10.2118 154.179 9.80338C154.459 9.39498 154.842 9.06766 155.29 8.8543C155.737 8.64094 156.232 8.54906 156.726 8.58791C157.22 8.62676 157.695 8.79496 158.103 9.07561L165.666 14.2732L171.189 18.0687C171.541 17.6554 171.98 17.3235 172.473 17.096C172.967 16.8684 173.504 16.7506 174.047 16.7506C174.591 16.7506 175.128 16.8684 175.621 17.096C176.115 17.3235 176.553 17.6554 176.906 18.0687L182.429 14.2732L189.991 9.07561C190.4 8.79496 190.875 8.62676 191.369 8.58791C191.862 8.54906 192.358 8.64094 192.805 8.8543C193.252 9.06766 193.635 9.39498 193.916 9.80338C194.197 10.2118 194.365 10.6868 194.404 11.1808L195.123 20.33L195.842 29.4792C195.881 29.9732 195.789 30.4687 195.576 30.9159C195.363 31.3632 195.035 31.7464 194.627 32.027C194.219 32.3076 193.744 32.4758 193.25 32.5147C192.756 32.5535 192.26 32.4616 191.813 32.2483L183.531 28.2967L176.726 25.0499C176.376 25.4048 175.959 25.6865 175.499 25.8788C175.039 26.0711 174.546 26.1701 174.047 26.1701C173.549 26.1701 173.055 26.0711 172.595 25.8788C172.136 25.6865 171.718 25.4048 171.368 25.0499L164.563 28.2967L156.282 32.2483C155.834 32.4617 155.339 32.5536 154.845 32.5147C154.351 32.4759 153.876 32.3077 153.468 32.027C153.059 31.7464 152.732 31.3632 152.519 30.9159C152.305 30.4687 152.214 29.9732 152.252 29.4792Z" fill="#FFD60A"/>
<path d="M180.855 65.8859C180.855 66.8261 181.618 65.8859 182.558 65.8859C183.498 65.8859 184.26 66.8261 184.26 65.8859C184.259 65.4351 184.079 65.003 183.76 64.6845C183.441 64.366 183.008 64.1872 182.558 64.1872C182.107 64.1872 181.674 64.366 181.355 64.6845C181.036 65.003 180.856 65.4351 180.855 65.8859Z" fill="#E6E6E6"/>
<path d="M166.104 65.8859C166.104 66.8261 165.342 65.8859 164.402 65.8859C163.462 65.8859 162.7 66.8261 162.7 65.8859C162.701 65.4351 162.881 65.003 163.2 64.6845C163.519 64.366 163.952 64.1872 164.402 64.1872C164.853 64.1872 165.286 64.366 165.605 64.6845C165.924 65.003 166.103 65.4351 166.104 65.8859Z" fill="#E6E6E6"/>
<path d="M354.94 194.414V183.594H300.846V184.27V194.414V281.654V292.475H311.665H354.94V281.654H311.665V194.414H354.94Z" fill="#3F3D56"/>
<path d="M381.311 183.594V292.475H435.406V183.594H381.311ZM424.587 281.654H392.13V194.414H424.587V281.654Z" fill="#FFD60A"/>
<path d="M231.199 281.654V184.27H220.38V281.654V292.475H231.199H274.475V281.654H231.199Z" fill="#FFD60A"/>
<path d="M196.038 194.414V183.594H141.944V184.27V194.414V232.286V243.106V281.654V292.475H152.763H196.038V281.654H152.763V243.106H196.038V232.286H152.763V194.414H196.038Z" fill="#3F3D56"/>
<path d="M619.327 194.414V183.594H565.232V184.27V194.414V232.286V243.106V281.654V292.475H576.051H619.327V281.654H576.051V243.106H619.327V232.286H576.051V194.414H619.327Z" fill="#FFD60A"/>
<path d="M105.43 184.27V273.699L76.9042 245.17L76.8392 245.235L76.7787 245.175L47.6169 274.341V183.932H36.7979V292.137H47.6169V289.643L76.8444 260.411L105.43 289.002V292.475H116.249V184.27H105.43Z" fill="#3F3D56"/>
<path d="M529.395 184.27V186.763L500.168 215.995L471.581 187.405V183.932H460.762V292.137H471.581V202.707L500.107 231.237L500.173 231.172L500.233 231.231L529.395 202.065V292.475H540.213V184.27H529.395Z" fill="#3F3D56"/>
<path d="M247.234 117.614C250.901 117.614 253.874 114.641 253.874 110.973C253.874 107.305 250.901 104.331 247.234 104.331C243.566 104.331 240.593 107.305 240.593 110.973C240.593 114.641 243.566 117.614 247.234 117.614Z" fill="#FFD60A"/>
<path d="M83.4322 191.41C87.0997 191.41 90.0728 188.436 90.0728 184.768C90.0728 181.1 87.0997 178.126 83.4322 178.126C79.7647 178.126 76.7916 181.1 76.7916 184.768C76.7916 188.436 79.7647 191.41 83.4322 191.41Z" fill="#FFD60A"/>
<path d="M214.769 339C218.436 339 221.409 336.026 221.409 332.358C221.409 328.69 218.436 325.717 214.769 325.717C211.101 325.717 208.128 328.69 208.128 332.358C208.128 336.026 211.101 339 214.769 339Z" fill="#FFD60A"/>
<path d="M381.522 137.539C385.189 137.539 388.162 134.566 388.162 130.898C388.162 127.23 385.189 124.256 381.522 124.256C377.854 124.256 374.881 127.23 374.881 130.898C374.881 134.566 377.854 137.539 381.522 137.539Z" fill="#FFD60A"/>
<path d="M577.051 333.096C580.718 333.096 583.691 330.123 583.691 326.455C583.691 322.787 580.718 319.813 577.051 319.813C573.383 319.813 570.41 322.787 570.41 326.455C570.41 330.123 573.383 333.096 577.051 333.096Z" fill="#FFD60A"/>
<path d="M583.691 158.94C587.359 158.94 590.332 155.966 590.332 152.298C590.332 148.63 587.359 145.657 583.691 145.657C580.024 145.657 577.051 148.63 577.051 152.298C577.051 155.966 580.024 158.94 583.691 158.94Z" fill="#FFD60A"/>
<path d="M499.577 278.488C503.244 278.488 506.217 275.514 506.217 271.846C506.217 268.178 503.244 265.205 499.577 265.205C495.909 265.205 492.936 268.178 492.936 271.846C492.936 275.514 495.909 278.488 499.577 278.488Z" fill="#FFD60A"/>
</g>
<defs>
<clipPath id="clip0_111_378">
<rect width="656" height="339" fill="white"/>
</clipPath>
</defs>
</svg>
